<svg fill="none" xmlns="http://www.w3.org/2000/svg" viewBox="0 0 381 171"><path d="M86.425 77.094c-2.148 8.302-5.254 16.692-9.319 25.168-4.005 8.477-8.418 16.198-13.237 23.165-4.819 6.967-9.986 13.47-15.501 19.508-5.458 6.038-10.741 11.002-15.85 14.892-5.051 3.948-9.84 6.792-14.37 8.534-4.528 1.8-8.244 2.206-11.147 1.219-3.135-1.103-5.225-3.686-6.27-7.75-1.103-4.064-.958-8.854.436-14.37C7.9 121.392 34.23 96.282 80.155 72.13l4.702-2.526c0-.116.145-.929.436-2.438.348-1.51.667-3.251.958-5.225.29-1.974.551-4.21.783-6.706.29-2.555.407-5.312.349-8.273-.058-2.961-.29-5.748-.697-8.36-.232-2.033-.755-4.355-1.568-6.968-.812-2.612-1.567-4.528-2.264-5.747-1.916-2.845-3.745-4.848-5.486-6.01-1.277-.812-2.932-1.422-4.964-1.828-1.974-.407-3.774-.523-5.4-.348-4.412.406-9.202 1.973-14.369 4.702-5.11 2.729-9.928 6.154-14.456 10.276-4.529 4.064-8.535 8.854-12.018 14.37-3.426 5.515-5.632 11.03-6.62 16.546-.58 3.484-.725 7.316-.434 11.496.29 4.18.957 7.315 2.003 9.405.522 1.22 1.219 2.061 2.09 2.526.928.522 2.235.784 3.919.784 3.077 0 4.615.522 4.615 1.567 0 .639-.32 1.103-.958 1.393-.639.29-1.8.436-3.483.436-3.31 0-5.777-.755-7.403-2.264-1.567-1.51-2.787-4.268-3.657-8.274-.523-2.09-.784-5.109-.784-9.057 0-3.948.261-7.025.784-9.23 1.045-4.878 2.902-9.697 5.573-14.457 2.729-4.82 5.893-9.145 9.493-12.976 3.6-3.89 7.46-7.345 11.582-10.364 4.122-3.077 8.245-5.486 12.367-7.228 4.18-1.742 8.012-2.7 11.495-2.874 12.367-.638 19.972 6.677 22.817 21.946.58 4.413.929 7.025 1.045 7.838.116 2.206.03 5.283-.261 9.231-.232 3.89-.61 7.286-1.132 10.19l-.436 4.18c.987-.407 2.032-.9 3.135-1.48 4.645-2.323 9.725-4.5 15.241-6.532 5.573-2.09 8.708-2.99 9.405-2.7 1.451.813.435 1.887-3.048 3.222-4.18 1.568-8.941 3.6-14.282 6.096-5.284 2.497-9.115 4.384-11.496 5.66l-1.306 4.965Zm-8.448.348c-21.075 11.496-37.505 22.759-49.29 33.79-11.729 11.031-19.625 22.585-23.689 34.661-.464 1.393-.783 2.467-.958 3.222a10.514 10.514 0 0 0-.435 2.351c-.058.871-.087 2.032-.087 3.484-.116 1.916-.116 3.425 0 4.528.116 1.161.348 2.119.697 2.874a7.74 7.74 0 0 0 1.306 2.177c.987 1.161 2.148 1.858 3.483 2.09 1.278.291 2.99.175 5.139-.348 7.257-1.974 15.965-7.954 26.126-17.94 10.218-9.986 19.13-21.336 26.735-34.051 1.336-2.206 3.078-5.457 5.226-9.754 2.148-4.238 3.86-7.78 5.138-10.624 1.277-3.02 2.67-6.938 4.18-11.757 1.567-4.76 2.235-7.286 2.003-7.577-1.684.813-3.542 1.771-5.574 2.874Z" fill="currentColor"/><path d="M141.13 48.18c.464 0 .871.175 1.219.523.406.29.61.668.61 1.133 0 .29-.204.725-.61 1.306a8.102 8.102 0 0 1-1.219 1.567c-1.626 2.09-2.555 3.92-2.787 5.487-.174 1.51.029 4.47.61 8.883.29 2.554.29 4.412 0 5.573-.349 1.278-1.162 2.526-2.439 3.745-1.219 1.22-2.525 2.032-3.919 2.439-1.335.406-2.874.638-4.615.696-1.684.058-2.932-.116-3.745-.522-1.626-.755-2.497-1.8-2.613-3.135-.058-.871.262-1.278.958-1.22.465 0 1.045.262 1.742.784 1.103.871 2.816 1.103 5.138.697s4.035-1.248 5.138-2.526c.465-.638.755-1.19.871-1.654.174-.407.261-1.132.261-2.178 0-.638-.058-1.567-.174-2.786a32.047 32.047 0 0 0-.348-3.397c-.174-1.16-.348-2.003-.523-2.525-.116-.174-.29-.203-.522-.087-.174.058-.639.32-1.394.784-4.586 3.193-7.895 3.744-9.927 1.654-.755-.813-1.133-1.422-1.133-1.829 0-.348-1.306.32-3.919 2.003-1.973 1.336-3.425 2.148-4.354 2.439-.929.29-1.713.145-2.351-.436-.987-.929-.842-2.38.435-4.354 1.219-2.032 2.932-3.832 5.138-5.4 2.207-1.625 4.035-2.438 5.487-2.438 1.103 0 1.858.349 2.264 1.045.407.639.61 1.858.61 3.658 0 1.858.116 2.903.348 3.135.465.465 1.945-.087 4.442-1.655 2.496-1.625 4.267-3.135 5.312-4.528 1.974-2.845 3.338-4.703 4.093-5.574.813-.87 1.451-1.306 1.916-1.306Zm-24.646 12.454c1.219-.696 2.177-1.393 2.874-2.09-.058 0 .145-.203.61-.61l.871-.87c-.059.058-.32.203-.784.435-.465.232-1.016.552-1.655.958-.58.407-1.161.9-1.742 1.48l-.958 1.046c.058 0 .32-.116.784-.349ZM174.399 59.938c-.813 0-2.816 1.277-6.009 3.831-1.916 1.626-3.28 2.584-4.093 2.874-.755.349-1.451.233-2.09-.348-.581-.464-.9-.987-.958-1.567 0-.64.261-1.539.784-2.7l.696-1.829c-.348 0-1.712.464-4.093 1.393-1.799.697-2.932 1.22-3.396 1.568-.406.348-.871.987-1.393 1.916-1.045 1.858-2.41 3.716-4.094 5.573-1.625 1.858-3.019 3.02-4.18 3.484-1.161.697-2.206.58-3.135-.348-.929-.93-1.335-2.032-1.219-3.31.29-1.916 1.422-4.615 3.396-8.099 1.916-3.483 3.542-5.631 4.877-6.444 2.032-1.394 3.861-1.684 5.487-.871.406.174.725.406.958.697.232.232.377.464.435.696.058.174.116.523.174 1.045.058.465.145.871.262 1.22l1.045-.349c.58-.232 1.19-.464 1.828-.697.697-.29 1.394-.551 2.09-.783.755-.29 1.452-.523 2.091-.697.696-.232 1.248-.377 1.654-.435.755-.117 1.249-.146 1.481-.088.232.058.464.349.696.871.407.639.291 1.48-.348 2.526-.581 1.045-.813 1.567-.697 1.567.175 0 .755-.377 1.742-1.132a37.632 37.632 0 0 1 3.048-2.264c1.103-.697 2.264-.929 3.484-.697 1.277.175 2.293 1.074 3.048 2.7.406 1.045.725 1.684.958 1.916.232.174.725.261 1.48.261 1.277 0 3.861-1.103 7.751-3.31.929-.58 1.48-.899 1.655-.957.174-.058.464.087.87.435 1.045.987.233 2.38-2.438 4.18-3.019 2.09-5.835 3.107-8.447 3.049h-.697c-.871-.233-1.713-.697-2.526-1.394-.813-.755-1.306-1.538-1.48-2.351-.232-.755-.465-1.132-.697-1.132Zm-25.603 6.967 2.177-2.613c-.174-.116-.407-.203-.697-.261a9.5 9.5 0 0 1-.61-.262 2.695 2.695 0 0 0-.522-.174 1.429 1.429 0 0 0-.436-.087h-.348c-.116 0-.203.058-.261.174a1.386 1.386 0 0 0-.349.262c-.348.464-.841 1.364-1.48 2.7-.639 1.393-1.016 2.438-1.132 3.134-.174.581-.232.9-.174.959.058.058.348-.088.871-.436.522-.348 1.509-1.48 2.961-3.396Zm2.525-6.967c0-.175-.029-.29-.087-.349-.058-.116-.145-.145-.261-.087-.116.058-.233.203-.349.436-.116.174-.087.261.087.261.407.058.61-.03.61-.261Z" fill="currentColor"/><path d="M176.461 93.118c-3.948 2.148-6.676 3.687-8.186 4.616-1.567.987-2.642 1.857-3.222 2.612-.929 1.161-2.003 1.51-3.222 1.045-.697-.348-.958-.871-.784-1.567.29-.987 3.774-3.397 10.45-7.229 6.677-3.773 13.789-7.402 21.337-10.885l8.099-3.658 8.186-16.198c3.135-6.154 6.822-13.44 11.06-21.86 4.819-9.405 7.054-14.107 6.706-14.107-.116 0-1.829.493-5.138 1.48-3.31.93-6.706 1.887-10.19 2.874-3.425.929-7.17 1.916-11.234 2.961s-7.199 1.77-9.405 2.177c-1.277.232-2.09.349-2.439.349-.406 0-.783-.175-1.132-.523-.522-.523-.784-1.074-.784-1.655 0-1.103 2.003-2.99 6.009-5.66 4.006-2.671 10.596-6.532 19.769-11.583C225.23 9.05 232.923 5.247 235.419 4.9c3.194-.349 4.21 1.48 3.048 5.486-.232.93-1.277 3.513-3.135 7.75-.464.988-.58 1.481-.348 1.481.697 0 5.835-1.857 15.414-5.573 9.638-3.716 17.766-6.996 24.385-9.841 1.858-.813 3.425-1.48 4.702-2.003a75.453 75.453 0 0 1 3.571-1.306c1.045-.349 1.887-.58 2.526-.697.638-.174 1.19-.232 1.654-.174.465.058.784.203.958.435.232.174.407.465.523.871.116.697-.058 1.248-.523 1.655-.406.406-1.074.61-2.003.61-.639 0-2.525.609-5.661 1.828-3.077 1.161-6.618 2.613-10.624 4.355-3.948 1.683-8.883 3.686-14.805 6.008-5.922 2.323-11.379 4.326-16.372 6.01l-6.271 2.177c-17.707 34.254-26.503 51.468-26.387 51.642.464 0 3.541-1.19 9.231-3.57 12.308-4.935 22.817-8.825 31.526-11.67 8.708-2.845 13.411-3.919 14.108-3.222.813.697-.029 1.538-2.526 2.525l-1.829.697c-17.127 5.69-34.834 12.367-53.123 20.03l-4.354 8.448c-1.8 3.483-4.006 7.895-6.619 13.237a1302.167 1302.167 0 0 0-7.75 15.937c-2.497 5.225-4.239 8.999-5.226 11.321-2.67 5.806-5.225 12.192-7.663 19.159-2.439 6.967-3.571 11.031-3.397 12.192.233 1.22-.087 2.236-.958 3.049-.871.812-1.683.841-2.438.087-.755-.755-.465-3.368.871-7.838a154.163 154.163 0 0 1 4.877-14.631c1.916-4.935 4.354-10.624 7.315-17.069 2.961-6.386 7.054-14.921 12.279-25.603 5.109-10.509 7.461-15.763 7.054-15.763-.58.116-2.177.784-4.789 2.003a348.231 348.231 0 0 0-8.448 4.093 537.179 537.179 0 0 0-7.751 4.093Zm17.331-62.442c.58 0 2.583-.435 6.009-1.306 2.67-.697 5.544-1.451 8.621-2.264a434.093 434.093 0 0 0 8.274-2.264c2.438-.755 4.673-1.452 6.705-2.09 2.09-.64 3.716-1.133 4.877-1.481 1.161-.406 1.771-.61 1.829-.61l2.09-4.702c2.38-5.11 3.571-7.78 3.571-8.012 0-1.045-7.083 2.41-21.25 10.363-12.598 6.967-19.507 11.09-20.726 12.366Z" fill="currentColor"/><path d="M285.994 58.109c2.438-1.394 3.745-1.51 3.919-.349.116.813-.668 1.8-2.352 2.962-1.683 1.16-3.744 2.177-6.183 3.047-2.438.813-4.557 1.22-6.357 1.22a5.948 5.948 0 0 1-2.961-.784c-.871-.58-1.51-1.277-1.916-2.09-.406-.813-.697-1.22-.871-1.22-.058 0-.958.523-2.7 1.568-2.786 1.742-4.731 2.787-5.834 3.135-1.104.29-2.003.088-2.7-.61-.813-.986-.842-2.583-.087-4.789.696-2.264 1.625-3.483 2.787-3.658.58-.058.987.087 1.219.436.232.29.29.667.174 1.132a7.746 7.746 0 0 1-.348 1.48 7.975 7.975 0 0 1-.436 1.394c-.116.406-.116.667 0 .784.29 0 1.481-.668 3.571-2.004 2.09-1.393 3.657-2.148 4.702-2.264 1.104-.174 1.974.29 2.613 1.394.639.987 1.103 1.654 1.393 2.003.291.348.668.61 1.133.783.464.175.987.146 1.567-.087 2.903-.464 6.125-1.625 9.667-3.483Z" fill="currentColor"/><path d="M312.121 57.673c.638 1.336-.552 3.078-3.571 5.226-2.961 2.09-6.473 3.657-10.538 4.702-1.393.29-2.554.378-3.483.262-.871-.117-1.655-.552-2.351-1.307l-.958-1.045-1.045 1.22c-.523.58-1.22 1.364-2.09 2.35a44.055 44.055 0 0 1-2.091 2.526 61.7 61.7 0 0 1-1.741 2.003c-.639.697-1.161 1.162-1.568 1.394-.464.29-.813.348-1.045.174-.58-.523-.522-1.655.174-3.397.697-1.741 2.903-6.531 6.619-14.369 3.6-7.605 6.706-14.224 9.318-19.856 7.025-15.153 10.857-23.078 11.496-23.774.929-.988 1.77-1.046 2.525-.175 0 .058.058.117.174.175.291.174-.377 2.06-2.003 5.66-1.567 3.542-7.373 15.937-17.417 37.186a645.815 645.815 0 0 1-2.874 6.096l2.351-2.612c1.858-1.858 3.745-3.367 5.661-4.529 1.974-1.219 3.397-1.712 4.267-1.48 1.22.464 1.626 1.248 1.22 2.351-.407 1.103-1.51 2.322-3.31 3.658-3.251 2.322-4.877 3.745-4.877 4.267 0 .174.233.261.697.261.465 0 1.074-.058 1.829-.174a11.16 11.16 0 0 0 2.351-.784c3.484-1.335 6.416-2.96 8.796-4.876 1.219-.987 2.032-1.539 2.439-1.655.406-.174.754 0 1.045.522Z" fill="currentColor"/><path d="M332.92 78.836c-.522.174-.929 0-1.219-.523-.232-.58-.087-1.51.435-2.787.523-1.277 1.684-3.541 3.484-6.792 3.193-6.387 4.528-10.335 4.006-11.844-.465-1.162-1.045-1.858-1.742-2.09-.29-.117-.435.029-.435.435 0 .232-.349.987-1.045 2.264a93.5 93.5 0 0 1-2.439 4.18c-.929 1.51-1.713 2.642-2.351 3.397-2.787 3.483-5.371 5.167-7.751 5.05-2.38-.115-3.832-1.973-4.354-5.573l-.262-1.828c-.29.116-.783.435-1.48.957-.639.465-1.306.93-2.003 1.394-.639.406-1.364.784-2.177 1.132-.755.406-1.51.58-2.264.523-.755 0-1.423-.262-2.003-.784-1.278-1.278-1.336-3.165-.175-5.661.987-2.496 2.178-3.745 3.571-3.745 1.045 0 1.684.32 1.916.958.232.58-.087 1.22-.958 1.916-.581.465-1.103 1.19-1.568 2.177-.464.93-.609 1.48-.435 1.655.116.116.813-.261 2.09-1.132 1.335-.871 2.7-1.742 4.093-2.613 1.452-.929 2.293-1.393 2.526-1.393.58 0 1.016.29 1.306.87.348.523.58 1.19.697 2.004.116.813.203 1.654.261 2.525.058.813.174 1.51.348 2.09.232.523.523.784.871.784.697 0 1.597-.493 2.7-1.48a20.664 20.664 0 0 0 3.222-3.484c.639-.87 1.306-1.916 2.003-3.135a57.522 57.522 0 0 0 1.916-3.31c.522-.986.784-1.625.784-1.915 0-.349-1.016-1.016-3.048-2.003-2.787-1.452-4.616-2.961-5.487-4.529-.813-1.625-.609-3.135.61-4.528 1.277-1.452 3.222-2.09 5.835-1.916 2.67.116 4.615.987 5.834 2.612.523.64.871 1.423 1.045 2.352.175.87.233 1.625.175 2.264-.058.58-.204 1.306-.436 2.177-.174.871-.261 1.336-.261 1.394l1.829 1.654c1.858 1.684 2.612 3.687 2.264 6.01-.29 2.264-1.916 6.24-4.877 11.93-2.67 5.4-4.354 8.186-5.051 8.36Zm-3.135-32.832c.697.697 1.626 1.422 2.787 2.177 1.219.697 2.119 1.045 2.699 1.045.233 0 .378-.058.436-.174.116-.116.203-.32.261-.61.058-.348.029-.813-.087-1.393 0-1.335-.087-2.177-.261-2.526-.407-.755-1.452-1.16-3.135-1.219-1.684-.116-2.816.174-3.397.87-.348.465-.116 1.075.697 1.83ZM380.219 57.5c.233.522-.348 1.364-1.741 2.525-1.336 1.16-2.903 2.148-4.703 2.96-1.277.697-2.729 1.249-4.354 1.655-1.568.407-2.613.523-3.136.349-.116 0-.377-.03-.783-.087l-.784-.262a6.445 6.445 0 0 0-.697-.26 23.164 23.164 0 0 1-1.132-.61c-.348-.29-.784-.64-1.306-1.046-.058-.116-.175-.232-.349-.348-.929-.813-1.741-1.161-2.438-1.045-.639.058-2.497.813-5.574 2.264-.29.117-.522.204-.696.262-2.149.987-3.687 1.567-4.616 1.741-.929.117-1.771-.145-2.526-.783-.696-.697-.783-1.568-.261-2.613.523-1.103 1.771-2.613 3.745-4.529 4.412-4.064 7.431-5.167 9.057-3.309.523.465.639.93.348 1.394-.29.406-.9.725-1.828.957-.523.058-1.133.262-1.829.61a12.42 12.42 0 0 0-1.916 1.306c-.639.465-1.19.93-1.655 1.394-.348.464-.464.697-.348.697.174-.059 1.538-.64 4.093-1.742 2.206-.987 3.716-1.452 4.528-1.394.871.058 1.974.639 3.31 1.742 1.625 1.51 3.106 2.264 4.441 2.264 1.394-.058 3.774-.929 7.141-2.612 2.381-1.161 3.919-1.83 4.616-2.003.755-.174 1.219 0 1.393.522Z" fill="currentColor"/></svg>