<svg class="logoMark" fill="none" xmlns="http://www.w3.org/2000/svg" viewBox="0 0 96 148"><g filter="url(#a)" fill="#EBEBEB"><path d="m74.317 100.232-60.506-80.44c-4.27 3.107-5.174 9.03-2.029 13.246l54.844 72.905.068-.049a14.081 14.081 0 0 1 2.627 10.5 14.174 14.174 0 0 1-5.696 9.333 14.623 14.623 0 0 1-10.738 2.624 14.533 14.533 0 0 1-9.49-5.623l-23.32-31.029c-1.585-2.108-4.604-2.556-6.743-1a4.694 4.694 0 0 0-1.004 6.636l23.32 31.03c3.805 5.062 9.494 8.433 15.817 9.37 6.322.937 12.76-.636 17.897-4.373 5.136-3.737 8.551-9.332 9.493-15.555.942-6.222-.667-12.562-4.472-17.625l-.068.05ZM73.106 75.104c-2.14 1.556-5.161 1.105-6.75-1.008L35.072 32.467a13.802 13.802 0 0 1-2.519-10.413c.6-3.7 2.666-7.017 5.723-9.241a14.72 14.72 0 0 1 10.656-2.676c3.776.522 7.186 2.5 9.457 5.522l4.638 6.172a.992.992 0 0 0 1.033.364l24.576-6.134a1.1 1.1 0 0 1 1.288.65 1.068 1.068 0 0 1-.492 1.34L68.955 29.072a.335.335 0 0 0-.11.497l7.874 10.478a4.726 4.726 0 0 1-1.01 6.673c-2.13 1.55-5.126 1.106-6.704-.994L50.642 21.295a4.556 4.556 0 0 0-3.034-1.759 4.974 4.974 0 0 0-3.594.912 4.824 4.824 0 0 0-1.94 3.114 4.414 4.414 0 0 0 .817 3.364l31.212 41.533a4.7 4.7 0 0 1-.997 6.645Z"/><path d="M50.61 115.566c1.586 2.108 4.604 2.556 6.744.999a4.694 4.694 0 0 0 1.004-6.636L9.903 45.456c-4.279 3.113-5.178 9.055-2.009 13.272l42.717 56.838Z"/></g><defs><filter id="a" x="0" y="0" width="96" height="148" filterUnits="userSpaceOnUse" color-interpolation-filters="sRGB"><feFlood flood-opacity="0" result="BackgroundImageFix"/><feColorMatrix in="SourceAlpha" values="0 0 0 0 0 0 0 0 0 0 0 0 0 0 0 0 0 0 127 0" result="hardAlpha"/><feOffset dy="4"/><feGaussianBlur stdDeviation="3"/><feComposite in2="hardAlpha" operator="out"/><feColorMatrix values="0 0 0 0 0.850781 0 0 0 0 0.850781 0 0 0 0 0.850781 0 0 0 1 0"/><feBlend in2="BackgroundImageFix" result="effect1_dropShadow_206_438"/><feColorMatrix in="SourceAlpha" values="0 0 0 0 0 0 0 0 0 0 0 0 0 0 0 0 0 0 127 0" result="hardAlpha"/><feOffset dy="-4"/><feGaussianBlur stdDeviation="3"/><feComposite in2="hardAlpha" operator="out"/><feColorMatrix values="0 0 0 0 1 0 0 0 0 1 0 0 0 0 1 0 0 0 0.5 0"/><feBlend in2="effect1_dropShadow_206_438" result="effect2_dropShadow_206_438"/><feBlend in="SourceGraphic" in2="effect2_dropShadow_206_438" result="shape"/></filter></defs></svg>