<svg width="24" height="24" fill="none" xmlns="http://www.w3.org/2000/svg" viewBox="0 0 24 24"><path d="M7.79 5.404c.54-.01 1.08.045 1.606.165.444.096.865.277 1.242.53.348.253.623.593.798.986.2.483.298 1.002.284 1.525a2.928 2.928 0 0 1-.421 1.634 3.103 3.103 0 0 1-1.253 1.072c.687.186 1.287.61 1.69 1.198.386.623.58 1.346.558 2.079a3.839 3.839 0 0 1-.353 1.693 3.3 3.3 0 0 1-.969 1.177 4.27 4.27 0 0 1-1.402.673 5.974 5.974 0 0 1-1.608.216H2V5.404h5.79Zm-.345 5.237c.425.017.843-.11 1.186-.36a1.41 1.41 0 0 0 .467-1.178 1.59 1.59 0 0 0-.149-.743 1.077 1.077 0 0 0-.412-.444 1.547 1.547 0 0 0-.593-.229 3.33 3.33 0 0 0-.695-.06H4.7v3.025h2.744v-.011Zm.149 5.512c.256.004.513-.024.763-.082.228-.05.445-.144.638-.277.19-.132.343-.31.445-.516a1.83 1.83 0 0 0 .16-.84 1.733 1.733 0 0 0-.536-1.43c-.408-.3-.908-.449-1.413-.42H4.7v3.565h2.893ZM16.14 16.106a2.133 2.133 0 0 0 1.585.564c.457.011.905-.128 1.276-.396.301-.196.53-.486.65-.825h2.153c-.23.965-.79 1.82-1.584 2.414a4.405 4.405 0 0 1-2.575.733 4.866 4.866 0 0 1-1.904-.361 4.064 4.064 0 0 1-1.435-1.009 4.705 4.705 0 0 1-.9-1.562 5.877 5.877 0 0 1-.32-1.994 5.766 5.766 0 0 1 .33-1.958 4.418 4.418 0 0 1 4.24-3.003 4.06 4.06 0 0 1 1.98.469 4.155 4.155 0 0 1 1.39 1.237c.373.538.64 1.141.787 1.778.161.684.219 1.389.17 2.09h-6.416a2.553 2.553 0 0 0 .574 1.823Zm2.816-4.925a1.778 1.778 0 0 0-1.379-.516 1.946 1.946 0 0 0-.969.216c-.236.13-.445.306-.615.516a1.99 1.99 0 0 0-.33.66c-.061.2-.1.405-.114.612h3.974a2.696 2.696 0 0 0-.566-1.487h-.001ZM20.017 6.268h-4.98v1.273h4.98V6.268Z" fill="currentColor"/></svg>